<svg width="17" height="17" viewBox="0 0 17 17" fill="none" xmlns="http://www.w3.org/2000/svg">
<path d="M14.5 14.3333H3.56667C3.1933 14.3333 3.00661 14.3333 2.86401 14.2606C2.73856 14.1967 2.63658 14.0947 2.57266 13.9692C2.5 13.8266 2.5 13.64 2.5 13.2666V2.33325M13.8333 5.66659L11.2208 8.45502C11.1217 8.5607 11.0722 8.61354 11.0125 8.64085C10.9598 8.66495 10.9017 8.6749 10.844 8.6697C10.7786 8.6638 10.7143 8.63043 10.5858 8.5637L8.41421 7.43614C8.28569 7.3694 8.22143 7.33604 8.15602 7.33014C8.09829 7.32494 8.04021 7.33488 7.98749 7.35899C7.92777 7.3863 7.87826 7.43914 7.77925 7.54481L5.16667 10.3333" stroke="#FFED29" stroke-width="2" stroke-linecap="round" stroke-linejoin="round"/>
</svg>
