<svg width="16" height="16" viewBox="0 0 16 16" fill="none" xmlns="http://www.w3.org/2000/svg">
<g clip-path="url(#clip0_1100_56374)">
<path d="M10.9997 8.66669C12.7175 8.66669 14.1595 7.48533 14.5574 5.89069C14.2722 5.96191 13.9737 5.99972 13.6663 5.99972C11.6413 5.99972 9.99967 4.3581 9.99967 2.33305C9.99967 2.02588 10.0374 1.72752 10.1086 1.44238C8.51417 1.84045 7.33301 3.2823 7.33301 5.00002C7.33301 5.6085 7.48122 6.18236 7.74352 6.68748M3.33301 4.66667V2M1.99967 3.33333H4.66634M3.99967 14.6667C2.52692 14.6667 1.33301 13.4728 1.33301 12C1.33301 10.6814 2.29001 9.58638 3.54733 9.37154C4.08551 7.79803 5.57714 6.66667 7.33301 6.66667C8.85847 6.66667 10.1845 7.5206 10.8591 8.77652C11.116 8.70494 11.3867 8.66667 11.6663 8.66667C13.3232 8.66667 14.6663 10.0098 14.6663 11.6667C14.6663 13.3235 13.3232 14.6667 11.6663 14.6667C9.11079 14.6667 6.55523 14.6667 3.99967 14.6667Z" stroke="#FF0066" stroke-width="1.5" stroke-linecap="round" stroke-linejoin="round"/>
</g>
<defs>
<clipPath id="clip0_1100_56374">
<rect width="16" height="16" fill="white"/>
</clipPath>
</defs>
</svg>
