<svg width="12" height="4" viewBox="0 0 12 4" fill="none" xmlns="http://www.w3.org/2000/svg">
<path d="M5.99935 2.66659C6.36754 2.66659 6.66602 2.36811 6.66602 1.99992C6.66602 1.63173 6.36754 1.33325 5.99935 1.33325C5.63116 1.33325 5.33268 1.63173 5.33268 1.99992C5.33268 2.36811 5.63116 2.66659 5.99935 2.66659Z" stroke="#FFED29" stroke-width="1.33333" stroke-linecap="round" stroke-linejoin="round"/>
<path d="M10.666 2.66659C11.0342 2.66659 11.3327 2.36811 11.3327 1.99992C11.3327 1.63173 11.0342 1.33325 10.666 1.33325C10.2978 1.33325 9.99935 1.63173 9.99935 1.99992C9.99935 2.36811 10.2978 2.66659 10.666 2.66659Z" stroke="#FFED29" stroke-width="1.33333" stroke-linecap="round" stroke-linejoin="round"/>
<path d="M1.33268 2.66659C1.70087 2.66659 1.99935 2.36811 1.99935 1.99992C1.99935 1.63173 1.70087 1.33325 1.33268 1.33325C0.964492 1.33325 0.666016 1.63173 0.666016 1.99992C0.666016 2.36811 0.964492 2.66659 1.33268 2.66659Z" stroke="#FFED29" stroke-width="1.33333" stroke-linecap="round" stroke-linejoin="round"/>
</svg>
