<svg width="22" height="19" viewBox="0 0 22 19" fill="none" xmlns="http://www.w3.org/2000/svg">
<path d="M7.49865 7.5H11.4986M7.49865 11H14.4986M11.9986 18C16.6931 18 20.4986 14.1944 20.4986 9.5C20.4986 4.80558 16.6931 1 11.9986 1C7.30423 1 3.49865 4.80558 3.49865 9.5C3.49865 10.45 3.6545 11.3636 3.94202 12.2166C4.05022 12.5376 4.10432 12.6981 4.11408 12.8214C4.12371 12.9432 4.11643 13.0286 4.0863 13.1469C4.0558 13.2668 3.98844 13.3915 3.85374 13.6408L2.21808 16.6684C1.98477 17.1002 1.86812 17.3161 1.89423 17.4828C1.91697 17.6279 2.0024 17.7557 2.12782 17.8322C2.27183 17.9201 2.51595 17.8948 3.00419 17.8444L8.12521 17.315C8.28029 17.299 8.35783 17.291 8.42851 17.2937C8.49802 17.2963 8.54709 17.3029 8.61488 17.3185C8.6838 17.3344 8.77047 17.3678 8.9438 17.4345C9.89185 17.7998 10.9219 18 11.9986 18Z" stroke="#07F468" stroke-width="2" stroke-linecap="round" stroke-linejoin="round"/>
</svg>
