<svg xmlns="http://www.w3.org/2000/svg" viewBox="0 0 240 240" role="img" aria-label="Telegram">
  <defs>
    <linearGradient id="tg" x1="0" x2="1" y1="0" y2="1">
      <stop offset="0" stop-color="#2AABEE"/>
      <stop offset="1" stop-color="#229ED9"/>
    </linearGradient>
  </defs>
  <circle cx="120" cy="120" r="120" fill="url(#tg)"/>
  <path
    fill="#fff"
    d="M196.7 73.2 161 188.6c-2.7 8.2-9.7 10.2-19.7 6.4l-54.4-40.2-26.2 25.2c-2.9 2.9-5.3 5.3-10.9 5.3l3.9-55.7 101.5-91.7c4.4-3.9-1-6.1-6.8-2.2L38.2 114.8c-7.9 3.1-7.8 9 1.3 12.8l43.2 13.5 100.2-63.2c4.7-2.9 9-1.3 5.5 2.2L107.2 154l55.9 41.5c6.4 3.5 11 1.7 13.6-5.9l35.7-115.4c3.9-9.1-3.5-13.3-15.7-7z"/>
</svg>
