<svg width="326" height="326" viewBox="0 0 326 326" fill="none" xmlns="http://www.w3.org/2000/svg">
<g filter="url(#filter0_ddd_189_13055)">
<path d="M162.583 109.25C169.587 109.25 176.522 110.63 182.993 113.31C189.464 115.99 195.343 119.919 200.296 124.871C205.248 129.823 209.177 135.703 211.857 142.174C214.537 148.644 215.917 155.58 215.917 162.583M215.917 162.583C215.917 171 213.925 179.297 210.104 186.796C206.283 194.295 200.741 200.784 193.932 205.731L162.583 162.583V109.25M162.583 109.25C133.128 109.25 109.25 133.128 109.25 162.583C109.25 192.039 133.128 215.917 162.583 215.917C192.039 215.917 215.917 192.039 215.917 162.583M162.583 109.25C192.039 109.25 215.917 133.128 215.917 162.583M215.917 162.583L162.583 162.583" stroke="#98A2B3" stroke-width="2.5" stroke-linecap="round" stroke-linejoin="round"/>
</g>
<defs>
<filter id="filter0_ddd_189_13055" x="-1.52588e-05" y="-1.52588e-05" width="325.167" height="325.167" filterUnits="userSpaceOnUse" color-interpolation-filters="sRGB">
<feFlood flood-opacity="0" result="BackgroundImageFix"/>
<feColorMatrix in="SourceAlpha" type="matrix" values="0 0 0 0 0 0 0 0 0 0 0 0 0 0 0 0 0 0 127 0" result="hardAlpha"/>
<feOffset dy="-4"/>
<feGaussianBlur stdDeviation="25"/>
<feColorMatrix type="matrix" values="0 0 0 0 0.980392 0 0 0 0 0.77085 0 0 0 0 0.0823529 0 0 0 0.5 0"/>
<feBlend mode="normal" in2="BackgroundImageFix" result="effect1_dropShadow_189_13055"/>
<feColorMatrix in="SourceAlpha" type="matrix" values="0 0 0 0 0 0 0 0 0 0 0 0 0 0 0 0 0 0 127 0" result="hardAlpha"/>
<feOffset dx="-8" dy="-8"/>
<feGaussianBlur stdDeviation="50"/>
<feColorMatrix type="matrix" values="0 0 0 0 0.0316309 0 0 0 0 0.755599 0 0 0 0 0.327938 0 0 0 0.5 0"/>
<feBlend mode="normal" in2="effect1_dropShadow_189_13055" result="effect2_dropShadow_189_13055"/>
<feColorMatrix in="SourceAlpha" type="matrix" values="0 0 0 0 0 0 0 0 0 0 0 0 0 0 0 0 0 0 127 0" result="hardAlpha"/>
<feOffset dx="8" dy="8"/>
<feGaussianBlur stdDeviation="50"/>
<feColorMatrix type="matrix" values="0 0 0 0 0.941227 0 0 0 0 0.0744679 0 0 0 0 0.460504 0 0 0 0.5 0"/>
<feBlend mode="normal" in2="effect2_dropShadow_189_13055" result="effect3_dropShadow_189_13055"/>
<feBlend mode="normal" in="SourceGraphic" in2="effect3_dropShadow_189_13055" result="shape"/>
</filter>
</defs>
</svg>
